<svg xmlns="http://www.w3.org/2000/svg" xmlns:xlink="http://www.w3.org/1999/xlink" width="500" zoomAndPan="magnify" viewBox="0 0 375 157.92" height="200" preserveAspectRatio="xMidYMid meet" version="1.0"><defs><g/><clipPath id="729d206c1c"><path d="M 15.085938 22.914062 L 110.480469 22.914062 L 110.480469 118.304688 L 15.085938 118.304688 Z M 15.085938 22.914062 " clip-rule="nonzero"/></clipPath></defs><g fill="#ffffff" fill-opacity="1"><g transform="translate(110.36708, 110.154377)"><g><path d="M 21.34375 -39.15625 C 24.894531 -39.15625 27.953125 -38.472656 30.515625 -37.109375 C 33.085938 -35.742188 35.070312 -33.765625 36.46875 -31.171875 C 37.875 -28.585938 38.578125 -25.425781 38.578125 -21.6875 L 38.578125 -16.609375 L 13.78125 -16.609375 C 13.894531 -13.648438 14.78125 -11.328125 16.4375 -9.640625 C 18.101562 -7.953125 20.414062 -7.109375 23.375 -7.109375 C 25.832031 -7.109375 28.078125 -7.359375 30.109375 -7.859375 C 32.148438 -8.367188 34.25 -9.128906 36.40625 -10.140625 L 36.40625 -2.03125 C 34.5 -1.09375 32.507812 -0.40625 30.4375 0.03125 C 28.363281 0.46875 25.847656 0.6875 22.890625 0.6875 C 19.046875 0.6875 15.640625 -0.0195312 12.671875 -1.4375 C 9.703125 -2.863281 7.375 -5.03125 5.6875 -7.9375 C 4 -10.851562 3.15625 -14.519531 3.15625 -18.9375 C 3.15625 -23.4375 3.914062 -27.179688 5.4375 -30.171875 C 6.96875 -33.160156 9.097656 -35.40625 11.828125 -36.90625 C 14.554688 -38.40625 17.726562 -39.15625 21.34375 -39.15625 Z M 21.421875 -31.703125 C 19.378906 -31.703125 17.6875 -31.046875 16.34375 -29.734375 C 15 -28.429688 14.226562 -26.378906 14.03125 -23.578125 L 28.734375 -23.578125 C 28.710938 -25.140625 28.429688 -26.523438 27.890625 -27.734375 C 27.359375 -28.953125 26.554688 -29.914062 25.484375 -30.625 C 24.421875 -31.34375 23.066406 -31.703125 21.421875 -31.703125 Z M 21.421875 -31.703125 "/></g></g></g><g fill="#ffffff" fill-opacity="1"><g transform="translate(151.955528, 110.154377)"><g><path d="M 26.953125 -39.15625 C 27.484375 -39.15625 28.097656 -39.125 28.796875 -39.0625 C 29.492188 -39.007812 30.0625 -38.9375 30.5 -38.84375 L 29.703125 -29.015625 C 29.359375 -29.128906 28.867188 -29.210938 28.234375 -29.265625 C 27.609375 -29.328125 27.066406 -29.359375 26.609375 -29.359375 C 25.253906 -29.359375 23.941406 -29.1875 22.671875 -28.84375 C 21.398438 -28.5 20.257812 -27.941406 19.25 -27.171875 C 18.238281 -26.410156 17.441406 -25.40625 16.859375 -24.15625 C 16.273438 -22.90625 15.984375 -21.375 15.984375 -19.5625 L 15.984375 0 L 5.5 0 L 5.5 -38.4375 L 13.4375 -38.4375 L 14.984375 -31.96875 L 15.5 -31.96875 C 16.257812 -33.28125 17.207031 -34.476562 18.34375 -35.5625 C 19.476562 -36.65625 20.769531 -37.523438 22.21875 -38.171875 C 23.675781 -38.828125 25.253906 -39.15625 26.953125 -39.15625 Z M 26.953125 -39.15625 "/></g></g></g><g fill="#ffffff" fill-opacity="1"><g transform="translate(183.920202, 110.154377)"><g><path d="M 40.421875 -19.28125 C 40.421875 -16.070312 39.988281 -13.226562 39.125 -10.75 C 38.269531 -8.28125 37.023438 -6.191406 35.390625 -4.484375 C 33.753906 -2.773438 31.785156 -1.484375 29.484375 -0.609375 C 27.179688 0.253906 24.582031 0.6875 21.6875 0.6875 C 18.988281 0.6875 16.507812 0.253906 14.25 -0.609375 C 11.988281 -1.484375 10.023438 -2.773438 8.359375 -4.484375 C 6.703125 -6.191406 5.421875 -8.28125 4.515625 -10.75 C 3.609375 -13.226562 3.15625 -16.070312 3.15625 -19.28125 C 3.15625 -23.550781 3.910156 -27.160156 5.421875 -30.109375 C 6.941406 -33.066406 9.097656 -35.3125 11.890625 -36.84375 C 14.691406 -38.382812 18.03125 -39.15625 21.90625 -39.15625 C 25.5 -39.15625 28.6875 -38.382812 31.46875 -36.84375 C 34.257812 -35.3125 36.445312 -33.066406 38.03125 -30.109375 C 39.625 -27.160156 40.421875 -23.550781 40.421875 -19.28125 Z M 13.859375 -19.28125 C 13.859375 -16.757812 14.128906 -14.640625 14.671875 -12.921875 C 15.222656 -11.203125 16.082031 -9.90625 17.25 -9.03125 C 18.425781 -8.164062 19.953125 -7.734375 21.828125 -7.734375 C 23.679688 -7.734375 25.1875 -8.164062 26.34375 -9.03125 C 27.507812 -9.90625 28.359375 -11.203125 28.890625 -12.921875 C 29.429688 -14.640625 29.703125 -16.757812 29.703125 -19.28125 C 29.703125 -21.832031 29.429688 -23.945312 28.890625 -25.625 C 28.359375 -27.3125 27.503906 -28.578125 26.328125 -29.421875 C 25.160156 -30.273438 23.640625 -30.703125 21.765625 -30.703125 C 18.992188 -30.703125 16.984375 -29.75 15.734375 -27.84375 C 14.484375 -25.945312 13.859375 -23.09375 13.859375 -19.28125 Z M 13.859375 -19.28125 "/></g></g></g><g fill="#ffffff" fill-opacity="1"><g transform="translate(227.502144, 110.154377)"><g><path d="M 32.3125 -11.40625 C 32.3125 -8.800781 31.695312 -6.597656 30.46875 -4.796875 C 29.25 -2.992188 27.421875 -1.628906 24.984375 -0.703125 C 22.554688 0.222656 19.535156 0.6875 15.921875 0.6875 C 13.234375 0.6875 10.929688 0.515625 9.015625 0.171875 C 7.109375 -0.171875 5.179688 -0.742188 3.234375 -1.546875 L 3.234375 -10.203125 C 5.316406 -9.265625 7.554688 -8.492188 9.953125 -7.890625 C 12.347656 -7.285156 14.453125 -6.984375 16.265625 -6.984375 C 18.304688 -6.984375 19.765625 -7.285156 20.640625 -7.890625 C 21.523438 -8.492188 21.96875 -9.289062 21.96875 -10.28125 C 21.96875 -10.914062 21.789062 -11.488281 21.4375 -12 C 21.082031 -12.519531 20.316406 -13.109375 19.140625 -13.765625 C 17.972656 -14.421875 16.140625 -15.273438 13.640625 -16.328125 C 11.234375 -17.335938 9.253906 -18.359375 7.703125 -19.390625 C 6.160156 -20.421875 5.015625 -21.640625 4.265625 -23.046875 C 3.523438 -24.460938 3.15625 -26.257812 3.15625 -28.4375 C 3.15625 -31.988281 4.535156 -34.660156 7.296875 -36.453125 C 10.066406 -38.253906 13.765625 -39.15625 18.390625 -39.15625 C 20.773438 -39.15625 23.050781 -38.914062 25.21875 -38.4375 C 27.382812 -37.957031 29.613281 -37.1875 31.90625 -36.125 L 28.734375 -28.5625 C 26.835938 -29.394531 25.046875 -30.070312 23.359375 -30.59375 C 21.671875 -31.125 19.957031 -31.390625 18.21875 -31.390625 C 16.6875 -31.390625 15.53125 -31.179688 14.75 -30.765625 C 13.96875 -30.359375 13.578125 -29.726562 13.578125 -28.875 C 13.578125 -28.257812 13.773438 -27.707031 14.171875 -27.21875 C 14.578125 -26.738281 15.359375 -26.207031 16.515625 -25.625 C 17.671875 -25.039062 19.375 -24.289062 21.625 -23.375 C 23.800781 -22.476562 25.691406 -21.539062 27.296875 -20.5625 C 28.898438 -19.59375 30.132812 -18.390625 31 -16.953125 C 31.875 -15.523438 32.3125 -13.675781 32.3125 -11.40625 Z M 32.3125 -11.40625 "/></g></g></g><g fill="#ffffff" fill-opacity="1"><g transform="translate(262.491433, 110.154377)"><g><path d="M 15.984375 -38.4375 L 15.984375 0 L 5.5 0 L 5.5 -38.4375 Z M 10.765625 -53.5 C 12.316406 -53.5 13.65625 -53.132812 14.78125 -52.40625 C 15.90625 -51.6875 16.46875 -50.34375 16.46875 -48.375 C 16.46875 -46.425781 15.90625 -45.078125 14.78125 -44.328125 C 13.65625 -43.585938 12.316406 -43.21875 10.765625 -43.21875 C 9.179688 -43.21875 7.832031 -43.585938 6.71875 -44.328125 C 5.601562 -45.078125 5.046875 -46.425781 5.046875 -48.375 C 5.046875 -50.34375 5.601562 -51.6875 6.71875 -52.40625 C 7.832031 -53.132812 9.179688 -53.5 10.765625 -53.5 Z M 10.765625 -53.5 "/></g></g></g><g fill="#ffffff" fill-opacity="1"><g transform="translate(283.973087, 110.154377)"><g><path d="M 21.6875 -7.671875 C 22.832031 -7.671875 23.945312 -7.785156 25.03125 -8.015625 C 26.125 -8.242188 27.210938 -8.53125 28.296875 -8.875 L 28.296875 -1.0625 C 27.171875 -0.5625 25.773438 -0.144531 24.109375 0.1875 C 22.453125 0.519531 20.640625 0.6875 18.671875 0.6875 C 16.378906 0.6875 14.320312 0.316406 12.5 -0.421875 C 10.675781 -1.171875 9.242188 -2.46875 8.203125 -4.3125 C 7.160156 -6.15625 6.640625 -8.726562 6.640625 -12.03125 L 6.640625 -30.5625 L 1.609375 -30.5625 L 1.609375 -35 L 7.390625 -38.5 L 10.421875 -46.609375 L 17.125 -46.609375 L 17.125 -38.4375 L 27.875 -38.4375 L 27.875 -30.5625 L 17.125 -30.5625 L 17.125 -12.03125 C 17.125 -10.5625 17.539062 -9.46875 18.375 -8.75 C 19.207031 -8.03125 20.3125 -7.671875 21.6875 -7.671875 Z M 21.6875 -7.671875 "/></g></g></g><g fill="#ffffff" fill-opacity="1"><g transform="translate(314.528584, 110.154377)"><g><path d="M 21.34375 -39.15625 C 24.894531 -39.15625 27.953125 -38.472656 30.515625 -37.109375 C 33.085938 -35.742188 35.070312 -33.765625 36.46875 -31.171875 C 37.875 -28.585938 38.578125 -25.425781 38.578125 -21.6875 L 38.578125 -16.609375 L 13.78125 -16.609375 C 13.894531 -13.648438 14.78125 -11.328125 16.4375 -9.640625 C 18.101562 -7.953125 20.414062 -7.109375 23.375 -7.109375 C 25.832031 -7.109375 28.078125 -7.359375 30.109375 -7.859375 C 32.148438 -8.367188 34.25 -9.128906 36.40625 -10.140625 L 36.40625 -2.03125 C 34.5 -1.09375 32.507812 -0.40625 30.4375 0.03125 C 28.363281 0.46875 25.847656 0.6875 22.890625 0.6875 C 19.046875 0.6875 15.640625 -0.0195312 12.671875 -1.4375 C 9.703125 -2.863281 7.375 -5.03125 5.6875 -7.9375 C 4 -10.851562 3.15625 -14.519531 3.15625 -18.9375 C 3.15625 -23.4375 3.914062 -27.179688 5.4375 -30.171875 C 6.96875 -33.160156 9.097656 -35.40625 11.828125 -36.90625 C 14.554688 -38.40625 17.726562 -39.15625 21.34375 -39.15625 Z M 21.421875 -31.703125 C 19.378906 -31.703125 17.6875 -31.046875 16.34375 -29.734375 C 15 -28.429688 14.226562 -26.378906 14.03125 -23.578125 L 28.734375 -23.578125 C 28.710938 -25.140625 28.429688 -26.523438 27.890625 -27.734375 C 27.359375 -28.953125 26.554688 -29.914062 25.484375 -30.625 C 24.421875 -31.34375 23.066406 -31.703125 21.421875 -31.703125 Z M 21.421875 -31.703125 "/></g></g></g><g clip-path="url(#729d206c1c)"><path fill="#ffffff" d="M 63.089844 59.390625 C 56.726562 59.390625 51.652344 64.449219 51.652344 70.800781 L 51.652344 117.132812 C 55.308594 118.066406 59.085938 118.421875 63.089844 118.421875 C 89.507812 118.421875 110.863281 97.140625 110.863281 70.800781 C 110.863281 44.339844 89.507812 22.9375 63.089844 22.9375 C 36.558594 22.9375 15.085938 44.339844 15.085938 70.800781 C 15.085938 85.964844 22.28125 99.492188 33.371094 108.308594 L 33.371094 70.800781 C 33.371094 54.453125 46.703125 41.164062 63.089844 41.164062 C 79.363281 41.164062 92.578125 54.453125 92.578125 70.800781 C 92.578125 87.027344 79.363281 100.195312 63.089844 100.195312 C 58.964844 100.195312 55.191406 99.492188 51.652344 97.960938 L 70.992188 78.679688 L 71.226562 78.558594 L 71.347656 78.328125 L 71.582031 78.09375 L 71.703125 77.851562 L 71.9375 77.738281 C 72.058594 77.503906 72.179688 77.503906 72.289062 77.261719 L 72.410156 77.027344 L 72.523438 76.796875 L 72.765625 76.5625 L 72.765625 76.441406 L 73 76.09375 L 73.121094 75.851562 L 73.234375 75.617188 L 73.355469 75.386719 L 73.476562 75.152344 L 73.589844 74.917969 C 73.589844 74.675781 73.710938 74.5625 73.710938 74.328125 L 73.820312 74.085938 L 73.941406 73.742188 L 73.941406 73.5 L 74.0625 73.265625 L 74.175781 73.03125 L 74.175781 72.675781 L 74.296875 72.441406 L 74.296875 70.800781 C 74.296875 64.449219 69.339844 59.390625 63.089844 59.390625 Z M 63.089844 59.390625 " fill-opacity="1" fill-rule="evenodd"/></g></svg>