<svg xmlns="http://www.w3.org/2000/svg" xmlns:xlink="http://www.w3.org/1999/xlink" width="500" zoomAndPan="magnify" viewBox="0 0 375 157.92" height="200" preserveAspectRatio="xMidYMid meet" version="1.0"><defs><g/><clipPath id="1549ae6127"><path d="M 15.085938 22.738281 L 110.859375 22.738281 L 110.859375 118.507812 L 15.085938 118.507812 Z M 15.085938 22.738281 " clip-rule="nonzero"/></clipPath></defs><g fill="#000000" fill-opacity="1"><g transform="translate(110.689853, 110.27361)"><g><path d="M 21.421875 -39.28125 C 24.984375 -39.28125 28.050781 -38.597656 30.625 -37.234375 C 33.207031 -35.867188 35.195312 -33.882812 36.59375 -31.28125 C 38 -28.6875 38.703125 -25.515625 38.703125 -21.765625 L 38.703125 -16.65625 L 13.828125 -16.65625 C 13.941406 -13.6875 14.832031 -11.359375 16.5 -9.671875 C 18.164062 -7.984375 20.484375 -7.140625 23.453125 -7.140625 C 25.910156 -7.140625 28.160156 -7.390625 30.203125 -7.890625 C 32.253906 -8.398438 34.363281 -9.160156 36.53125 -10.171875 L 36.53125 -2.03125 C 34.625 -1.09375 32.628906 -0.40625 30.546875 0.03125 C 28.460938 0.46875 25.9375 0.6875 22.96875 0.6875 C 19.101562 0.6875 15.679688 -0.0234375 12.703125 -1.453125 C 9.734375 -2.878906 7.398438 -5.050781 5.703125 -7.96875 C 4.015625 -10.882812 3.171875 -14.5625 3.171875 -19 C 3.171875 -23.507812 3.9375 -27.265625 5.46875 -30.265625 C 7 -33.265625 9.128906 -35.515625 11.859375 -37.015625 C 14.597656 -38.523438 17.785156 -39.28125 21.421875 -39.28125 Z M 21.484375 -31.796875 C 19.441406 -31.796875 17.75 -31.140625 16.40625 -29.828125 C 15.0625 -28.523438 14.285156 -26.46875 14.078125 -23.65625 L 28.828125 -23.65625 C 28.804688 -25.21875 28.523438 -26.609375 27.984375 -27.828125 C 27.453125 -29.046875 26.648438 -30.007812 25.578125 -30.71875 C 24.503906 -31.4375 23.140625 -31.796875 21.484375 -31.796875 Z M 21.484375 -31.796875 "/></g></g></g><g fill="#000000" fill-opacity="1"><g transform="translate(152.419188, 110.27361)"><g><path d="M 27.046875 -39.28125 C 27.566406 -39.28125 28.175781 -39.25 28.875 -39.1875 C 29.582031 -39.132812 30.15625 -39.0625 30.59375 -38.96875 L 29.796875 -29.109375 C 29.453125 -29.222656 28.960938 -29.304688 28.328125 -29.359375 C 27.703125 -29.421875 27.160156 -29.453125 26.703125 -29.453125 C 25.335938 -29.453125 24.015625 -29.28125 22.734375 -28.9375 C 21.460938 -28.59375 20.320312 -28.035156 19.3125 -27.265625 C 18.300781 -26.492188 17.5 -25.476562 16.90625 -24.21875 C 16.320312 -22.96875 16.03125 -21.4375 16.03125 -19.625 L 16.03125 0 L 5.515625 0 L 5.515625 -38.5625 L 13.484375 -38.5625 L 15.03125 -32.078125 L 15.5625 -32.078125 C 16.3125 -33.390625 17.253906 -34.59375 18.390625 -35.6875 C 19.535156 -36.78125 20.835938 -37.648438 22.296875 -38.296875 C 23.753906 -38.953125 25.335938 -39.28125 27.046875 -39.28125 Z M 27.046875 -39.28125 "/></g></g></g><g fill="#000000" fill-opacity="1"><g transform="translate(184.492147, 110.27361)"><g><path d="M 40.5625 -19.34375 C 40.5625 -16.125 40.128906 -13.273438 39.265625 -10.796875 C 38.398438 -8.316406 37.144531 -6.21875 35.5 -4.5 C 33.863281 -2.789062 31.890625 -1.5 29.578125 -0.625 C 27.265625 0.25 24.660156 0.6875 21.765625 0.6875 C 19.046875 0.6875 16.554688 0.25 14.296875 -0.625 C 12.035156 -1.5 10.066406 -2.789062 8.390625 -4.5 C 6.722656 -6.21875 5.4375 -8.316406 4.53125 -10.796875 C 3.625 -13.273438 3.171875 -16.125 3.171875 -19.34375 C 3.171875 -23.625 3.925781 -27.25 5.4375 -30.21875 C 6.957031 -33.1875 9.117188 -35.4375 11.921875 -36.96875 C 14.734375 -38.507812 18.082031 -39.28125 21.96875 -39.28125 C 25.582031 -39.28125 28.785156 -38.507812 31.578125 -36.96875 C 34.367188 -35.4375 36.5625 -33.1875 38.15625 -30.21875 C 39.757812 -27.25 40.5625 -23.625 40.5625 -19.34375 Z M 13.90625 -19.34375 C 13.90625 -16.820312 14.179688 -14.695312 14.734375 -12.96875 C 15.285156 -11.238281 16.144531 -9.9375 17.3125 -9.0625 C 18.488281 -8.195312 20.019531 -7.765625 21.90625 -7.765625 C 23.769531 -7.765625 25.28125 -8.195312 26.4375 -9.0625 C 27.601562 -9.9375 28.453125 -11.238281 28.984375 -12.96875 C 29.523438 -14.695312 29.796875 -16.820312 29.796875 -19.34375 C 29.796875 -21.894531 29.523438 -24.015625 28.984375 -25.703125 C 28.453125 -27.398438 27.597656 -28.671875 26.421875 -29.515625 C 25.242188 -30.367188 23.710938 -30.796875 21.828125 -30.796875 C 19.046875 -30.796875 17.03125 -29.84375 15.78125 -27.9375 C 14.53125 -26.03125 13.90625 -23.164062 13.90625 -19.34375 Z M 13.90625 -19.34375 "/></g></g></g><g fill="#000000" fill-opacity="1"><g transform="translate(228.22173, 110.27361)"><g><path d="M 32.421875 -11.453125 C 32.421875 -8.828125 31.804688 -6.613281 30.578125 -4.8125 C 29.347656 -3.007812 27.515625 -1.640625 25.078125 -0.703125 C 22.640625 0.222656 19.601562 0.6875 15.96875 0.6875 C 13.28125 0.6875 10.972656 0.515625 9.046875 0.171875 C 7.128906 -0.171875 5.195312 -0.742188 3.25 -1.546875 L 3.25 -10.25 C 5.332031 -9.300781 7.578125 -8.519531 9.984375 -7.90625 C 12.390625 -7.300781 14.5 -7 16.3125 -7 C 18.363281 -7 19.832031 -7.300781 20.71875 -7.90625 C 21.601562 -8.519531 22.046875 -9.320312 22.046875 -10.3125 C 22.046875 -10.957031 21.863281 -11.535156 21.5 -12.046875 C 21.144531 -12.566406 20.378906 -13.15625 19.203125 -13.8125 C 18.035156 -14.46875 16.195312 -15.328125 13.6875 -16.390625 C 11.28125 -17.398438 9.300781 -18.421875 7.75 -19.453125 C 6.195312 -20.484375 5.046875 -21.707031 4.296875 -23.125 C 3.546875 -24.539062 3.171875 -26.34375 3.171875 -28.53125 C 3.171875 -32.09375 4.554688 -34.773438 7.328125 -36.578125 C 10.097656 -38.378906 13.804688 -39.28125 18.453125 -39.28125 C 20.847656 -39.28125 23.128906 -39.039062 25.296875 -38.5625 C 27.472656 -38.082031 29.710938 -37.3125 32.015625 -36.25 L 28.828125 -28.65625 C 26.921875 -29.488281 25.125 -30.164062 23.4375 -30.6875 C 21.75 -31.21875 20.03125 -31.484375 18.28125 -31.484375 C 16.738281 -31.484375 15.578125 -31.273438 14.796875 -30.859375 C 14.015625 -30.453125 13.625 -29.820312 13.625 -28.96875 C 13.625 -28.351562 13.820312 -27.800781 14.21875 -27.3125 C 14.625 -26.832031 15.40625 -26.296875 16.5625 -25.703125 C 17.726562 -25.117188 19.441406 -24.367188 21.703125 -23.453125 C 23.878906 -22.554688 25.769531 -21.617188 27.375 -20.640625 C 28.988281 -19.660156 30.234375 -18.453125 31.109375 -17.015625 C 31.984375 -15.578125 32.421875 -13.722656 32.421875 -11.453125 Z M 32.421875 -11.453125 "/></g></g></g><g fill="#000000" fill-opacity="1"><g transform="translate(263.32955, 110.27361)"><g><path d="M 16.03125 -38.5625 L 16.03125 0 L 5.515625 0 L 5.515625 -38.5625 Z M 10.796875 -53.671875 C 12.359375 -53.671875 13.703125 -53.304688 14.828125 -52.578125 C 15.953125 -51.859375 16.515625 -50.507812 16.515625 -48.53125 C 16.515625 -46.570312 15.953125 -45.21875 14.828125 -44.46875 C 13.703125 -43.726562 12.359375 -43.359375 10.796875 -43.359375 C 9.210938 -43.359375 7.863281 -43.726562 6.75 -44.46875 C 5.632812 -45.21875 5.078125 -46.570312 5.078125 -48.53125 C 5.078125 -50.507812 5.632812 -51.859375 6.75 -52.578125 C 7.863281 -53.304688 9.210938 -53.671875 10.796875 -53.671875 Z M 10.796875 -53.671875 "/></g></g></g><g fill="#000000" fill-opacity="1"><g transform="translate(284.883976, 110.27361)"><g><path d="M 21.765625 -7.6875 C 22.910156 -7.6875 24.03125 -7.800781 25.125 -8.03125 C 26.21875 -8.257812 27.304688 -8.550781 28.390625 -8.90625 L 28.390625 -1.0625 C 27.265625 -0.5625 25.867188 -0.144531 24.203125 0.1875 C 22.535156 0.519531 20.710938 0.6875 18.734375 0.6875 C 16.429688 0.6875 14.363281 0.316406 12.53125 -0.421875 C 10.707031 -1.171875 9.269531 -2.472656 8.21875 -4.328125 C 7.175781 -6.179688 6.65625 -8.765625 6.65625 -12.078125 L 6.65625 -30.65625 L 1.625 -30.65625 L 1.625 -35.109375 L 7.421875 -38.625 L 10.453125 -46.765625 L 17.171875 -46.765625 L 17.171875 -38.5625 L 27.96875 -38.5625 L 27.96875 -30.65625 L 17.171875 -30.65625 L 17.171875 -12.078125 C 17.171875 -10.597656 17.585938 -9.492188 18.421875 -8.765625 C 19.265625 -8.046875 20.378906 -7.6875 21.765625 -7.6875 Z M 21.765625 -7.6875 "/></g></g></g><g fill="#000000" fill-opacity="1"><g transform="translate(315.542985, 110.27361)"><g><path d="M 21.421875 -39.28125 C 24.984375 -39.28125 28.050781 -38.597656 30.625 -37.234375 C 33.207031 -35.867188 35.195312 -33.882812 36.59375 -31.28125 C 38 -28.6875 38.703125 -25.515625 38.703125 -21.765625 L 38.703125 -16.65625 L 13.828125 -16.65625 C 13.941406 -13.6875 14.832031 -11.359375 16.5 -9.671875 C 18.164062 -7.984375 20.484375 -7.140625 23.453125 -7.140625 C 25.910156 -7.140625 28.160156 -7.390625 30.203125 -7.890625 C 32.253906 -8.398438 34.363281 -9.160156 36.53125 -10.171875 L 36.53125 -2.03125 C 34.625 -1.09375 32.628906 -0.40625 30.546875 0.03125 C 28.460938 0.46875 25.9375 0.6875 22.96875 0.6875 C 19.101562 0.6875 15.679688 -0.0234375 12.703125 -1.453125 C 9.734375 -2.878906 7.398438 -5.050781 5.703125 -7.96875 C 4.015625 -10.882812 3.171875 -14.5625 3.171875 -19 C 3.171875 -23.507812 3.9375 -27.265625 5.46875 -30.265625 C 7 -33.265625 9.128906 -35.515625 11.859375 -37.015625 C 14.597656 -38.523438 17.785156 -39.28125 21.421875 -39.28125 Z M 21.484375 -31.796875 C 19.441406 -31.796875 17.75 -31.140625 16.40625 -29.828125 C 15.0625 -28.523438 14.285156 -26.46875 14.078125 -23.65625 L 28.828125 -23.65625 C 28.804688 -25.21875 28.523438 -26.609375 27.984375 -27.828125 C 27.453125 -29.046875 26.648438 -30.007812 25.578125 -30.71875 C 24.503906 -31.4375 23.140625 -31.796875 21.484375 -31.796875 Z M 21.484375 -31.796875 "/></g></g></g><g clip-path="url(#1549ae6127)"><path fill="#5271ff" d="M 63.257812 59.339844 C 56.867188 59.339844 51.777344 64.417969 51.777344 70.789062 L 51.777344 117.28125 C 55.445312 118.21875 59.238281 118.574219 63.257812 118.574219 C 89.765625 118.574219 111.191406 97.21875 111.191406 70.789062 C 111.191406 44.238281 89.765625 22.761719 63.257812 22.761719 C 36.632812 22.761719 15.085938 44.238281 15.085938 70.789062 C 15.085938 86.003906 22.308594 99.582031 33.433594 108.425781 L 33.433594 70.789062 C 33.433594 54.382812 46.808594 41.050781 63.257812 41.050781 C 79.585938 41.050781 92.847656 54.382812 92.847656 70.789062 C 92.847656 87.074219 79.585938 100.285156 63.257812 100.285156 C 59.117188 100.285156 55.328125 99.582031 51.777344 98.046875 L 71.1875 78.695312 L 71.421875 78.574219 L 71.542969 78.339844 L 71.777344 78.105469 L 71.898438 77.863281 L 72.132812 77.75 C 72.253906 77.515625 72.375 77.515625 72.488281 77.273438 L 72.609375 77.039062 L 72.722656 76.804688 L 72.964844 76.570312 L 72.964844 76.449219 L 73.199219 76.101562 L 73.320312 75.859375 L 73.433594 75.625 L 73.675781 75.15625 L 73.789062 74.917969 C 73.789062 74.675781 73.910156 74.5625 73.910156 74.328125 L 74.023438 74.085938 L 74.144531 73.738281 L 74.144531 73.496094 L 74.265625 73.261719 L 74.378906 73.027344 L 74.378906 72.671875 L 74.503906 72.4375 L 74.503906 70.789062 C 74.5 64.417969 69.527344 59.339844 63.257812 59.339844 Z M 63.257812 59.339844 " fill-opacity="1" fill-rule="evenodd"/></g></svg>