<svg xmlns="http://www.w3.org/2000/svg" xmlns:xlink="http://www.w3.org/1999/xlink" width="500" zoomAndPan="magnify" viewBox="0 0 375 374.999991" height="500" preserveAspectRatio="xMidYMid meet" version="1.0"><defs><clipPath id="49fced8de3"><path d="M 37.5 37.5 L 338.25 37.5 L 338.25 337.5 L 37.5 337.5 Z M 37.5 37.5 " clip-rule="nonzero"/></clipPath></defs><g clip-path="url(#49fced8de3)"><path fill="#5271ff" d="M 188.238281 152.042969 C 168.25 152.042969 152.320312 167.933594 152.320312 187.871094 L 152.320312 333.359375 C 163.796875 336.296875 175.664062 337.410156 188.238281 337.410156 C 271.199219 337.410156 338.25 270.585938 338.25 187.871094 C 338.25 104.78125 271.199219 37.574219 188.238281 37.574219 C 104.917969 37.574219 37.5 104.78125 37.5 187.871094 C 37.5 235.492188 60.09375 277.972656 94.910156 305.652344 L 94.910156 187.871094 C 94.910156 136.53125 136.773438 94.808594 188.238281 94.808594 C 239.34375 94.808594 280.839844 136.535156 280.839844 187.871094 C 280.839844 238.832031 239.34375 280.175781 188.238281 280.175781 C 175.285156 280.175781 163.429688 277.972656 152.320312 273.167969 L 213.054688 212.617188 L 213.789062 212.238281 L 214.167969 211.503906 L 214.902344 210.769531 L 215.28125 210.011719 L 216.015625 209.65625 C 216.394531 208.921875 216.773438 208.921875 217.128906 208.164062 L 217.507812 207.429688 L 217.863281 206.695312 L 218.621094 205.960938 L 218.621094 205.582031 L 219.355469 204.496094 L 219.734375 203.734375 L 220.089844 203 L 220.46875 202.265625 L 220.847656 201.535156 L 221.203125 200.800781 C 221.203125 200.039062 221.582031 199.6875 221.582031 198.953125 L 221.9375 198.195312 L 222.316406 197.105469 L 222.316406 196.347656 L 222.695312 195.613281 L 223.050781 194.878906 L 223.050781 193.765625 L 223.429688 193.03125 L 223.429688 187.871094 C 223.429688 167.933594 207.867188 152.042969 188.238281 152.042969 Z M 188.238281 152.042969 " fill-opacity="1" fill-rule="evenodd"/></g></svg>